<svg xmlns="http://www.w3.org/2000/svg" viewBox="0 0 1130.77 1609.43"><defs><style>.a,.d,.f{fill:blue;}.b,.c,.j{fill:none;}.c,.d,.e,.f,.g,.h,.i,.j{stroke:blue;stroke-width:6px;}.c,.d,.e,.f,.h,.i,.j{stroke-linejoin:round;}.d,.h,.i,.j{stroke-linecap:round;}.e,.g{fill:#13de5a;}.g{stroke-miterlimit:10;}.h{fill:#fff;}.i{fill:#ff4300;}</style></defs><title>DiFe_Visual_Hack_02</title><path class="a" d="M3022.55-142.35c-4.48-.31-4.34,4.13-3.26,5.54s4.64,1.34,5.49-.13S3025.7-142.13,3022.55-142.35Z" transform="translate(-1990.35 218.88)"/><path class="a" d="M2057.5,1147.94c-4.48-.26-4.34,3.49-3.26,4.68s4.64,1.13,5.49-.11S2060.65,1148.13,2057.5,1147.94Z" transform="translate(-1990.35 218.88)"/><path class="a" d="M2300.23,1109.77c-4.48-.26-4.34,3.49-3.26,4.68s4.64,1.13,5.49-.11S2303.38,1110,2300.23,1109.77Z" transform="translate(-1990.35 218.88)"/><path class="a" d="M2834.86-218.86c-4.48-.34-4.34,4.48-3.26,6s4.64,1.45,5.49-.15S2838-218.62,2834.86-218.86Z" transform="translate(-1990.35 218.88)"/><path class="a" d="M2555-163.1c-4.48-.3-4.34,4-3.26,5.37s4.64,1.3,5.49-.13S2558.14-162.88,2555-163.1Z" transform="translate(-1990.35 218.88)"/><path class="a" d="M2738.22-72.51c-4.48-.3-4.34,4-3.26,5.37s4.64,1.3,5.49-.13S2741.37-72.3,2738.22-72.51Z" transform="translate(-1990.35 218.88)"/><path class="a" d="M2524,131.71c-4.48-.3-4.34,4-3.26,5.37s4.64,1.3,5.49-.13S2527.11,131.92,2524,131.71Z" transform="translate(-1990.35 218.88)"/><path class="a" d="M3039.69,371.81c-4.48-.3-4.34,4-3.26,5.37s4.64,1.3,5.49-.13S3042.84,372,3039.69,371.81Z" transform="translate(-1990.35 218.88)"/><path class="a" d="M2558.39-97.16c-4.48-.3-4.34,4-3.26,5.37s4.64,1.3,5.49-.13S2561.54-97,2558.39-97.16Z" transform="translate(-1990.35 218.88)"/><path class="a" d="M2175.11-39.07c-4.48-.26-4.34,3.49-3.26,4.68s4.64,1.13,5.49-.11S2178.26-38.88,2175.11-39.07Z" transform="translate(-1990.35 218.88)"/><path class="a" d="M2052.35,164.33c-4.48-.33-4.34,4.31-3.26,5.78s4.64,1.4,5.49-.14S2055.5,164.56,2052.35,164.33Z" transform="translate(-1990.35 218.88)"/><path class="a" d="M2235.38,54.16c-4.48-.26-4.34,3.49-3.26,4.68s4.64,1.13,5.49-.11S2238.53,54.35,2235.38,54.16Z" transform="translate(-1990.35 218.88)"/><path class="a" d="M2672.32,1325.65c-4.48-.34-4.34,4.52-3.26,6.06s4.64,1.47,5.49-.15S2675.47,1325.89,2672.32,1325.65Z" transform="translate(-1990.35 218.88)"/><path class="a" d="M2105.57,643.66c-4.48-.34-4.34,4.52-3.26,6.06s4.64,1.47,5.49-.15S2108.72,643.9,2105.57,643.66Z" transform="translate(-1990.35 218.88)"/><path class="a" d="M2559.43,1308.45c-4.48-.27-4.34,3.51-3.26,4.7s4.64,1.14,5.49-.11S2562.58,1308.64,2559.43,1308.45Z" transform="translate(-1990.35 218.88)"/><path class="a" d="M2082.58,783c-4.48-.27-4.34,3.51-3.26,4.7s4.64,1.14,5.49-.11S2085.73,783.14,2082.58,783Z" transform="translate(-1990.35 218.88)"/><path class="a" d="M2337.45,1058c-4.48-.26-4.34,3.49-3.26,4.68s4.64,1.13,5.49-.11S2340.6,1058.22,2337.45,1058Z" transform="translate(-1990.35 218.88)"/><path class="a" d="M2932.55,1293.56c-4.48-.26-4.34,3.49-3.26,4.68s4.64,1.13,5.49-.11S2935.7,1293.75,2932.55,1293.56Z" transform="translate(-1990.35 218.88)"/><path class="b" d="M2285.26,1319.92c-4.48-.26-4.34,3.49-3.26,4.68s4.64,1.13,5.49-.11S2288.41,1320.1,2285.26,1319.92Z" transform="translate(-1990.35 218.88)"/><path class="a" d="M2471.27,1362.5c-5-.3-4.8,4-3.61,5.34s5.13,1.29,6.07-.13S2474.75,1362.71,2471.27,1362.5Z" transform="translate(-1990.35 218.88)"/><path class="a" d="M2115.28,455.47c-4.48-.35-4.34,4.62-3.26,6.2s4.64,1.5,5.49-.15S2118.43,455.72,2115.28,455.47Z" transform="translate(-1990.35 218.88)"/><path class="a" d="M2328.86,1358.36c-6-.43-5.85,5.75-4.4,7.7s6.25,1.86,7.39-.19S2333.11,1358.67,2328.86,1358.36Z" transform="translate(-1990.35 218.88)"/><path class="a" d="M2232.07,136.9c-4.48-.26-4.34,3.49-3.26,4.68s4.64,1.13,5.49-.11S2235.22,137.08,2232.07,136.9Z" transform="translate(-1990.35 218.88)"/><path class="a" d="M2728.83-150.79c-4.48-.36-4.34,4.8-3.26,6.43s4.64,1.55,5.49-.16S2732-150.54,2728.83-150.79Z" transform="translate(-1990.35 218.88)"/><path class="a" d="M2790.52,1381c-5.91-.46-5.72,6-4.3,8.09s6.12,2,7.23-.2S2794.68,1381.3,2790.52,1381Z" transform="translate(-1990.35 218.88)"/><path class="a" d="M2757.6,1318.64c-8.53-.57-8.25,7.5-6.21,10s8.82,2.43,10.44-.24S2763.6,1319,2757.6,1318.64Z" transform="translate(-1990.35 218.88)"/><path class="a" d="M3098.08-87.11c-8.53-.57-8.25,7.5-6.21,10s8.82,2.43,10.44-.24S3104.07-86.72,3098.08-87.11Z" transform="translate(-1990.35 218.88)"/><path class="a" d="M2639-120.75c-8.53-.57-8.25,7.5-6.21,10s8.82,2.43,10.44-.24S2645-120.35,2639-120.75Z" transform="translate(-1990.35 218.88)"/><path class="a" d="M3100.16,750.76c-8.53-.57-8.25,7.5-6.21,10s8.82,2.43,10.44-.24S3106.15,751.16,3100.16,750.76Z" transform="translate(-1990.35 218.88)"/><path class="a" d="M2460.75,51c-8.53-.57-8.25,7.5-6.21,10s8.82,2.43,10.44-.24S2466.74,51.39,2460.75,51Z" transform="translate(-1990.35 218.88)"/><path class="a" d="M2698.43,71.71c-8.53-.57-8.25,7.5-6.21,10s8.82,2.43,10.44-.24S2704.43,72.11,2698.43,71.71Z" transform="translate(-1990.35 218.88)"/><path class="a" d="M2216.42-83c-8.53-.57-8.25,7.5-6.21,10s8.82,2.43,10.44-.24S2222.41-82.58,2216.42-83Z" transform="translate(-1990.35 218.88)"/><path class="a" d="M3009.9-16.64c-8.25-.7-8,9.27-6,12.43s8.53,3,10.09-.3S3015.69-16.15,3009.9-16.64Z" transform="translate(-1990.35 218.88)"/><path class="a" d="M3094.62,586c-8.53-.57-8.25,7.5-6.21,10s8.82,2.43,10.44-.24S3100.61,586.43,3094.62,586Z" transform="translate(-1990.35 218.88)"/><path class="a" d="M2939.4,773.5c-8.53-.57-8.25,7.5-6.21,10s8.82,2.43,10.44-.24S2945.39,773.9,2939.4,773.5Z" transform="translate(-1990.35 218.88)"/><path class="a" d="M2499.39,228c-8.53-.57-8.25,7.5-6.21,10s8.82,2.43,10.44-.24S2505.38,228.41,2499.39,228Z" transform="translate(-1990.35 218.88)"/><path class="a" d="M2285.3,655c-9.71-.76-9.39,10.12-7.06,13.56s10,3.28,11.87-.33S2292.12,655.56,2285.3,655Z" transform="translate(-1990.35 218.88)"/><path class="a" d="M2215,173.85c-8.53-.57-8.25,7.5-6.21,10s8.82,2.43,10.44-.24S2221,174.24,2215,173.85Z" transform="translate(-1990.35 218.88)"/><path class="a" d="M2061.89-44.68c-11-.73-10.69,9.71-8,13s11.43,3.15,13.52-.31S2069.65-44.17,2061.89-44.68Z" transform="translate(-1990.35 218.88)"/><path class="a" d="M2053.29,496.34c-8.53-.57-8.25,7.5-6.21,10s8.82,2.43,10.44-.24S2059.29,496.74,2053.29,496.34Z" transform="translate(-1990.35 218.88)"/><path class="a" d="M2264.3,752.79c-8.53-.68-8.25,9-6.21,12.05s8.82,2.91,10.44-.29S2270.29,753.26,2264.3,752.79Z" transform="translate(-1990.35 218.88)"/><path class="a" d="M2482.07,1310.86c-6.74-.58-6.52,7.74-4.9,10.38s7,2.51,8.24-.25S2486.8,1311.27,2482.07,1310.86Z" transform="translate(-1990.35 218.88)"/><path class="a" d="M2026.4,235.78c-8.53-.57-8.25,7.5-6.21,10s8.82,2.43,10.44-.24S2032.4,236.18,2026.4,235.78Z" transform="translate(-1990.35 218.88)"/><path class="a" d="M2114,727.46c-8.53-.57-8.25,7.5-6.21,10s8.82,2.43,10.44-.24S2120,727.86,2114,727.46Z" transform="translate(-1990.35 218.88)"/><path class="a" d="M2032.7,858.49c-8.53-.57-8.25,7.5-6.21,10s8.82,2.43,10.44-.24S2038.69,858.89,2032.7,858.49Z" transform="translate(-1990.35 218.88)"/><path class="a" d="M2026.95,56.65c-8.53-.57-8.25,7.5-6.21,10s8.82,2.43,10.44-.24S2032.94,57.05,2026.95,56.65Z" transform="translate(-1990.35 218.88)"/><path class="a" d="M2769.56,568.69c-8.53-.57-8.25,7.5-6.21,10s8.82,2.43,10.44-.24S2775.55,569.09,2769.56,568.69Z" transform="translate(-1990.35 218.88)"/><path class="a" d="M2892.93,396.82c-8.53-.57-8.25,7.5-6.21,10s8.82,2.43,10.44-.24S2898.92,397.22,2892.93,396.82Z" transform="translate(-1990.35 218.88)"/><path class="a" d="M3099.75,89.19c-8.53-.57-8.25,7.5-6.21,10s8.82,2.43,10.44-.24S3105.74,89.58,3099.75,89.19Z" transform="translate(-1990.35 218.88)"/><path class="a" d="M2045.25-99.71c-4.48-.39-4.34,5.23-3.26,7s4.64,1.69,5.49-.17S2048.4-99.44,2045.25-99.71Z" transform="translate(-1990.35 218.88)"/><path class="a" d="M2325.91,47.4c-4.48-.34-4.34,4.51-3.26,6s4.64,1.46,5.49-.15S2329.06,47.64,2325.91,47.4Z" transform="translate(-1990.35 218.88)"/><path class="a" d="M2307.87,525.23c-4.48-.26-4.34,3.49-3.26,4.68s4.64,1.13,5.49-.11S2311,525.41,2307.87,525.23Z" transform="translate(-1990.35 218.88)"/><path class="a" d="M2010.29,116.78c-4.48-.26-4.34,3.49-3.26,4.68s4.64,1.13,5.49-.11S2013.44,117,2010.29,116.78Z" transform="translate(-1990.35 218.88)"/><path class="a" d="M2077.91,41.18c-4.48-.3-4.34,4-3.26,5.35s4.64,1.29,5.49-.13S2081.07,41.39,2077.91,41.18Z" transform="translate(-1990.35 218.88)"/><path class="a" d="M2051.88,1017.09c-4.48-.26-4.34,3.49-3.26,4.68s4.64,1.13,5.49-.11S2055,1017.28,2051.88,1017.09Z" transform="translate(-1990.35 218.88)"/><path class="a" d="M1994.24-7.28c-4.48-.3-4.34,4-3.26,5.3s4.64,1.28,5.49-.13S1997.39-7.07,1994.24-7.28Z" transform="translate(-1990.35 218.88)"/><path class="a" d="M2135.54,144.84c-4.48-.3-4.34,4-3.26,5.33s4.64,1.29,5.49-.13S2138.69,145.05,2135.54,144.84Z" transform="translate(-1990.35 218.88)"/><path class="a" d="M2038.19,320.7c-4.48-.26-4.34,3.49-3.26,4.68s4.64,1.13,5.49-.11S2041.34,320.89,2038.19,320.7Z" transform="translate(-1990.35 218.88)"/><path class="a" d="M2277.09,470.77c-4.48-.34-4.34,4.45-3.26,6s4.64,1.44,5.49-.14S2280.24,471,2277.09,470.77Z" transform="translate(-1990.35 218.88)"/><path class="a" d="M2307.26,887.32c-4.48-.26-4.34,3.49-3.26,4.68s4.64,1.13,5.49-.11S2310.41,887.51,2307.26,887.32Z" transform="translate(-1990.35 218.88)"/><path class="a" d="M2774,391.78c-4.48-.26-4.34,3.49-3.26,4.68s4.64,1.13,5.49-.11S2777.17,392,2774,391.78Z" transform="translate(-1990.35 218.88)"/><path class="a" d="M2076.54,196.74c-4.48-.26-4.34,3.49-3.26,4.68s4.64,1.13,5.49-.11S2079.69,196.92,2076.54,196.74Z" transform="translate(-1990.35 218.88)"/><path class="a" d="M2022.44,383.78c-4.48-.32-4.34,4.21-3.26,5.65s4.64,1.36,5.49-.14S2025.59,384,2022.44,383.78Z" transform="translate(-1990.35 218.88)"/><path class="a" d="M2128.84,333.16c-4.48-.4-4.34,5.25-3.26,7s4.64,1.7,5.49-.17S2132,333.44,2128.84,333.16Z" transform="translate(-1990.35 218.88)"/><path class="a" d="M2238.9,626.59c-4.48-.4-4.34,5.25-3.26,7s4.64,1.7,5.49-.17S2242.05,626.87,2238.9,626.59Z" transform="translate(-1990.35 218.88)"/><path class="a" d="M2854-128.4c-4.48-.37-4.34,4.88-3.26,6.53s4.64,1.58,5.49-.16S2857.16-128.15,2854-128.4Z" transform="translate(-1990.35 218.88)"/><path class="a" d="M3100.94,1102.53c-4.48-.37-4.34,4.92-3.26,6.6s4.64,1.59,5.49-.16S3104.09,1102.79,3100.94,1102.53Z" transform="translate(-1990.35 218.88)"/><path class="a" d="M2886.21,1024.44c-4.48-.37-4.34,4.92-3.26,6.6s4.64,1.59,5.49-.16S2889.36,1024.7,2886.21,1024.44Z" transform="translate(-1990.35 218.88)"/><path class="b" d="M2389.5,1312.7c-4.48-.26-4.34,3.49-3.26,4.68s4.64,1.13,5.49-.11S2392.65,1312.88,2389.5,1312.7Z" transform="translate(-1990.35 218.88)"/><path class="a" d="M2473,153.21c-6.23-.35-6,4.63-4.53,6.2s6.44,1.5,7.62-.15S2477.35,153.45,2473,153.21Z" transform="translate(-1990.35 218.88)"/><path class="a" d="M2283.75,217.65c-4.48-.26-4.34,3.49-3.26,4.68s4.64,1.13,5.49-.11S2286.9,217.84,2283.75,217.65Z" transform="translate(-1990.35 218.88)"/><path class="a" d="M2861.6,1359.42c-4.48-.26-4.34,3.49-3.26,4.68s4.64,1.13,5.49-.11S2864.75,1359.61,2861.6,1359.42Z" transform="translate(-1990.35 218.88)"/><path class="a" d="M3104.25,1271.05c-4.48-.32-4.34,4.24-3.26,5.68s4.64,1.37,5.49-.14S3107.4,1271.28,3104.25,1271.05Z" transform="translate(-1990.35 218.88)"/><path class="a" d="M2381.43,1207.26c-4.48-.32-4.34,4.24-3.26,5.68s4.64,1.37,5.49-.14S2384.58,1207.49,2381.43,1207.26Z" transform="translate(-1990.35 218.88)"/><path class="a" d="M3020.91,53.52c-4.48-.33-4.34,4.38-3.26,5.87s4.64,1.42,5.49-.14S3024.06,53.76,3020.91,53.52Z" transform="translate(-1990.35 218.88)"/><path class="a" d="M2879.37,455.45c-4.22-.31-4.08,4.1-3.07,5.49s4.36,1.33,5.16-.13S2882.34,455.67,2879.37,455.45Z" transform="translate(-1990.35 218.88)"/><path class="a" d="M2767.09,77.65c-4.48-.26-4.34,3.49-3.26,4.68s4.64,1.13,5.49-.11S2770.24,77.83,2767.09,77.65Z" transform="translate(-1990.35 218.88)"/><path class="a" d="M2556.14,114c-4.48-.26-4.34,3.49-3.26,4.68s4.64,1.13,5.49-.11S2559.29,114.2,2556.14,114Z" transform="translate(-1990.35 218.88)"/><path class="a" d="M3118.4,19.24c-4.48-.26-4.34,3.49-3.26,4.68s4.64,1.13,5.49-.11S3121.55,19.43,3118.4,19.24Z" transform="translate(-1990.35 218.88)"/><path class="a" d="M3100,865.82c-4.48-.37-4.34,4.86-3.26,6.51s4.64,1.58,5.49-.16S3103.16,866.07,3100,865.82Z" transform="translate(-1990.35 218.88)"/><path class="a" d="M3056.9,151.51c-4.48-.3-4.34,3.91-3.26,5.24s4.64,1.27,5.49-.13S3060.05,151.72,3056.9,151.51Z" transform="translate(-1990.35 218.88)"/><path class="a" d="M2349.25,1124c-4.48-.35-4.34,4.6-3.26,6.17s4.64,1.49,5.49-.15S2352.4,1124.26,2349.25,1124Z" transform="translate(-1990.35 218.88)"/><path class="a" d="M2931.36-114c-4.48-.26-4.34,3.49-3.26,4.68s4.64,1.13,5.49-.11S2934.51-113.78,2931.36-114Z" transform="translate(-1990.35 218.88)"/><path class="a" d="M2173.3,74.82c-3.35-.29-3.24,3.81-2.44,5.11s3.46,1.24,4.1-.12S2175.65,75,2173.3,74.82Z" transform="translate(-1990.35 218.88)"/><path class="a" d="M3020.31,1336.8c-4.48-.41-4.34,5.42-3.26,7.27s4.64,1.76,5.49-.18S3023.46,1337.09,3020.31,1336.8Z" transform="translate(-1990.35 218.88)"/><path class="a" d="M2751.55,1053.95c-4.48-.41-4.34,5.42-3.26,7.27s4.64,1.76,5.49-.18S2754.7,1054.24,2751.55,1053.95Z" transform="translate(-1990.35 218.88)"/><path class="a" d="M3103.69,189.54c-5.31-.4-5.14,5.31-3.87,7.11s5.49,1.72,6.5-.17S3107.42,189.83,3103.69,189.54Z" transform="translate(-1990.35 218.88)"/><path class="a" d="M3044.76,463.62c-4.06-.31-3.93,4.11-3,5.5s4.2,1.33,5-.13S3047.61,463.84,3044.76,463.62Z" transform="translate(-1990.35 218.88)"/><path class="a" d="M2291.47,708.59c-4.06-.31-3.93,4.11-3,5.5s4.2,1.33,5-.13S2294.32,708.81,2291.47,708.59Z" transform="translate(-1990.35 218.88)"/><path class="a" d="M3051.34,214.58c-4.48-.36-4.34,4.75-3.26,6.36s4.64,1.54,5.49-.15S3054.49,214.83,3051.34,214.58Z" transform="translate(-1990.35 218.88)"/><path class="a" d="M2790.78,524.67c-4.48-.26-4.34,3.49-3.26,4.68s4.64,1.13,5.49-.11S2793.93,524.86,2790.78,524.67Z" transform="translate(-1990.35 218.88)"/><path class="a" d="M3048.52,630.62c-4.48-.35-4.34,4.57-3.26,6.13s4.64,1.48,5.49-.15S3051.67,630.86,3048.52,630.62Z" transform="translate(-1990.35 218.88)"/><path class="a" d="M3057.49,327.19c-4.48-.26-4.34,3.49-3.26,4.68s4.64,1.13,5.49-.11S3060.64,327.38,3057.49,327.19Z" transform="translate(-1990.35 218.88)"/><path class="a" d="M3104.9,486.11c-4.48-.26-4.34,3.49-3.26,4.68s4.64,1.13,5.49-.11S3108,486.3,3104.9,486.11Z" transform="translate(-1990.35 218.88)"/><path class="a" d="M2776.83,976.08c-4.48-.26-4.34,3.49-3.26,4.68s4.64,1.13,5.49-.11S2780,976.27,2776.83,976.08Z" transform="translate(-1990.35 218.88)"/><path class="a" d="M2885.31,304.88c-4.48-.29-4.34,3.86-3.26,5.17s4.64,1.25,5.49-.12S2888.46,305.08,2885.31,304.88Z" transform="translate(-1990.35 218.88)"/><path class="a" d="M3057.07,685.2c-4.48-.33-4.34,4.42-3.26,5.92s4.64,1.43,5.49-.14S3060.22,685.43,3057.07,685.2Z" transform="translate(-1990.35 218.88)"/><path class="a" d="M2815.91,841.51c-4.48-.33-4.34,4.42-3.26,5.92s4.64,1.43,5.49-.14S2819.06,841.74,2815.91,841.51Z" transform="translate(-1990.35 218.88)"/><path class="a" d="M2252.7,701.28c-4.48-.33-4.34,4.42-3.26,5.92s4.64,1.43,5.49-.14S2255.85,701.51,2252.7,701.28Z" transform="translate(-1990.35 218.88)"/><path class="a" d="M3001.27,205.54c-4.48-.26-4.34,3.49-3.26,4.68s4.64,1.13,5.49-.11S3004.42,205.72,3001.27,205.54Z" transform="translate(-1990.35 218.88)"/><path class="a" d="M3065.52,30.28c-4.48-.37-4.34,4.84-3.26,6.48s4.64,1.57,5.49-.16S3068.67,30.54,3065.52,30.28Z" transform="translate(-1990.35 218.88)"/><path class="a" d="M3108,664.9c-4.69-.39-4.53,5.16-3.41,6.91s4.85,1.67,5.73-.17S3111.33,665.17,3108,664.9Z" transform="translate(-1990.35 218.88)"/><path class="a" d="M2308,817.53c-4.69-.39-4.53,5.16-3.41,6.91s4.85,1.67,5.73-.17S2311.31,817.8,2308,817.53Z" transform="translate(-1990.35 218.88)"/><path class="a" d="M3054.67,546.43c-4.48-.26-4.34,3.49-3.26,4.68s4.64,1.13,5.49-.11S3057.82,546.62,3054.67,546.43Z" transform="translate(-1990.35 218.88)"/><path class="a" d="M2060.85,667.12c-4.48-.34-4.34,4.48-3.26,6s4.64,1.45,5.49-.15S2064,667.36,2060.85,667.12Z" transform="translate(-1990.35 218.88)"/><path class="a" d="M2037.67,748.82c-4.48-.32-4.34,4.26-3.26,5.71s4.64,1.38,5.49-.14S2040.82,749,2037.67,748.82Z" transform="translate(-1990.35 218.88)"/><path class="a" d="M2939.38,641.26c-5.2-.34-5,4.45-3.78,6s5.37,1.44,6.36-.14S2943,641.49,2939.38,641.26Z" transform="translate(-1990.35 218.88)"/><path class="a" d="M3035.14,742.15c-4.48-.26-4.34,3.49-3.26,4.68s4.64,1.13,5.49-.11S3038.29,742.33,3035.14,742.15Z" transform="translate(-1990.35 218.88)"/><path class="a" d="M2256.33,842.83c-4.48-.26-4.34,3.49-3.26,4.68s4.64,1.13,5.49-.11S2259.48,843,2256.33,842.83Z" transform="translate(-1990.35 218.88)"/><path class="a" d="M2698.4-111.19c-4.48-.26-4.34,3.49-3.26,4.68s4.64,1.13,5.49-.11S2701.55-111,2698.4-111.19Z" transform="translate(-1990.35 218.88)"/><path class="a" d="M3095.69,391.64c-4.48-.26-4.34,3.49-3.26,4.68s4.64,1.13,5.49-.11S3098.84,391.82,3095.69,391.64Z" transform="translate(-1990.35 218.88)"/><path class="a" d="M2301.23,276.93c-4.48-.26-4.34,3.49-3.26,4.68s4.64,1.13,5.49-.11S2304.38,277.12,2301.23,276.93Z" transform="translate(-1990.35 218.88)"/><path class="a" d="M2025.74,590c-4.48-.26-4.34,3.49-3.26,4.68s4.64,1.13,5.49-.11S2028.89,590.19,2025.74,590Z" transform="translate(-1990.35 218.88)"/><path class="a" d="M2143.5,631.76c-4.48-.26-4.34,3.49-3.26,4.68s4.64,1.13,5.49-.11S2146.65,631.94,2143.5,631.76Z" transform="translate(-1990.35 218.88)"/><path class="a" d="M2952.36,1365.18c-2.13,0-1.76,2.71-2.93,3.44s-2.12,1.32-1.9,2.42,4.32,1.32,4.25,3.3,1.9,1.61,1.9-.81,2.34-2.49,3.81-2.64.22-2.34-2-2.42S2953.53,1365.18,2952.36,1365.18Z" transform="translate(-1990.35 218.88)"/><path class="b" d="M2163.86,1331.54c-2.13,0-1.76,2.71-2.93,3.44s-2.12,1.32-1.9,2.42,4.32,1.32,4.25,3.3,1.9,1.61,1.9-.81,2.34-2.49,3.81-2.64.22-2.34-2-2.42S2165,1331.54,2163.86,1331.54Z" transform="translate(-1990.35 218.88)"/><path class="a" d="M2112.47,836.38c-2.13,0-1.76,2.71-2.93,3.44s-2.12,1.32-1.9,2.42,4.32,1.32,4.25,3.3,1.9,1.61,1.9-.81,2.34-2.49,3.81-2.64.22-2.34-2-2.42S2113.64,836.38,2112.47,836.38Z" transform="translate(-1990.35 218.88)"/><path class="a" d="M2449.26-54.35c-4,0-1.73,5.25-3.94,6.63s-7.25,1.25-6.84,3.32,8,.84,7.87,4.56,4.35,8.91,5,0c.32-4.54,2.76-2.85,5.39-3.73,4-1.34,1.37-3.9-2.76-4S2451.47-54.35,2449.26-54.35Z" transform="translate(-1990.35 218.88)"/><path class="a" d="M3074.78,1003.56c-4,0-1.73,5.25-3.94,6.63s-7.25,1.25-6.84,3.32,8,.84,7.87,4.56,4.35,8.91,5,0c.32-4.54,2.76-2.85,5.39-3.73,4-1.34,1.37-3.9-2.76-4S3077,1003.56,3074.78,1003.56Z" transform="translate(-1990.35 218.88)"/><path class="a" d="M3072.6,247.92c-4,0-1.73,5.25-3.94,6.63s-7.25,1.25-6.84,3.32,8,.84,7.87,4.56,4.35,8.91,5,0c.32-4.54,2.76-2.85,5.39-3.73,4-1.34,1.37-3.9-2.76-4S3074.81,247.92,3072.6,247.92Z" transform="translate(-1990.35 218.88)"/><path class="a" d="M2244.13,502.56c-4,0-1.73,5.25-3.94,6.63s-7.25,1.25-6.84,3.32,8,.84,7.87,4.56,4.35,8.91,5,0c.32-4.54,2.76-2.85,5.39-3.73,4-1.34,1.37-3.9-2.76-4S2246.34,502.56,2244.13,502.56Z" transform="translate(-1990.35 218.88)"/><path class="a" d="M2337.54,1218.41c-4,0-1.73,5.25-3.94,6.63s-7.25,1.25-6.84,3.32,8,.84,7.87,4.56,4.35,8.91,5,0c.32-4.54,2.76-2.85,5.39-3.73,4-1.34,1.37-3.9-2.76-4S2339.74,1218.41,2337.54,1218.41Z" transform="translate(-1990.35 218.88)"/><path class="a" d="M2800.55,914.21c-4,0-1.73,5.25-3.94,6.63s-7.25,1.25-6.84,3.32,8,.84,7.87,4.56,4.35,8.91,5,0c.32-4.54,2.76-2.85,5.39-3.73,4-1.34,1.37-3.9-2.76-4S2802.76,914.21,2800.55,914.21Z" transform="translate(-1990.35 218.88)"/><path class="a" d="M2083.61,300.26c-2.13,0-1.76,2.71-2.93,3.44s-2.12,1.32-1.9,2.42,4.32,1.32,4.25,3.3,1.9,1.61,1.9-.81,2.34-2.49,3.81-2.64.22-2.34-2-2.42S2084.78,300.26,2083.61,300.26Z" transform="translate(-1990.35 218.88)"/><path class="a" d="M3077.44,1197c-2.13,0-1.76,2.71-2.93,3.44s-2.12,1.32-1.9,2.42,4.32,1.32,4.25,3.3,1.9,1.61,1.9-.81,2.34-2.49,3.81-2.64.22-2.34-2-2.42S3078.61,1197,3077.44,1197Z" transform="translate(-1990.35 218.88)"/><path class="a" d="M2629.64,1366.49c-3.18,0-2.63,4.05-4.38,5.15s-3.18,2-2.85,3.61,6.46,2,6.35,4.93,2.85,2.41,2.85-1.2,3.5-3.72,5.7-3.94.33-3.5-3-3.61S2631.4,1366.49,2629.64,1366.49Z" transform="translate(-1990.35 218.88)"/><path class="a" d="M2302.63,1319.59c-4.48-.34-4.34,4.52-3.26,6.06s4.64,1.47,5.49-.15S2305.78,1319.83,2302.63,1319.59Z" transform="translate(-1990.35 218.88)"/><path class="a" d="M2189.73,1302.39c-4.48-.27-4.34,3.51-3.26,4.7s4.64,1.14,5.49-.11S2192.89,1302.58,2189.73,1302.39Z" transform="translate(-1990.35 218.88)"/><path class="a" d="M2259.95,1360.43c-3.18,0-2.63,4.05-4.38,5.15s-3.18,2-2.85,3.61,6.46,2,6.35,4.93,2.85,2.41,2.85-1.2,3.5-3.72,5.7-3.94.33-3.5-3-3.61S2261.7,1360.43,2259.95,1360.43Z" transform="translate(-1990.35 218.88)"/><path class="a" d="M2679.66-194c-4.48-.34-4.34,4.48-3.26,6s4.64,1.45,5.49-.15S2682.82-193.8,2679.66-194Z" transform="translate(-1990.35 218.88)"/><path class="a" d="M2561.4-207.66c-4.48-.34-4.34,4.49-3.26,6s4.64,1.46,5.49-.15S2564.55-207.42,2561.4-207.66Z" transform="translate(-1990.35 218.88)"/><path class="a" d="M2918.47-208.31c-4.48-.26-4.34,3.49-3.26,4.68s4.64,1.13,5.49-.11S2921.63-208.13,2918.47-208.31Z" transform="translate(-1990.35 218.88)"/><path class="a" d="M2476.94-164c-5-.3-4.8,4-3.61,5.34s5.13,1.29,6.07-.13S2480.42-163.8,2476.94-164Z" transform="translate(-1990.35 218.88)"/><path class="a" d="M2297-128.57c-6-.43-5.85,5.75-4.4,7.7s6.25,1.86,7.39-.19S2301.22-128.26,2297-128.57Z" transform="translate(-1990.35 218.88)"/><path class="a" d="M2769.38-132.72c-5.91-.46-5.72,6-4.3,8.09s6.12,2,7.23-.2S2773.53-132.4,2769.38-132.72Z" transform="translate(-1990.35 218.88)"/><path class="a" d="M2789-188.51c-8.53-.57-8.25,7.5-6.21,10s8.82,2.43,10.44-.24S2795-188.11,2789-188.51Z" transform="translate(-1990.35 218.88)"/><path class="a" d="M2389.5-208c-4.48-.32-4.34,4.25-3.26,5.7s4.64,1.38,5.49-.14S2392.65-207.81,2389.5-208Z" transform="translate(-1990.35 218.88)"/><path class="a" d="M2199.66-139.9c-4.48-.36-4.34,4.78-3.26,6.4s4.64,1.55,5.49-.15S2202.81-139.65,2199.66-139.9Z" transform="translate(-1990.35 218.88)"/><path class="a" d="M2850.88-169.9c-4.48-.26-4.34,3.49-3.26,4.68s4.64,1.13,5.49-.11S2854-169.72,2850.88-169.9Z" transform="translate(-1990.35 218.88)"/><path class="a" d="M2238.39,916.33c-4.48-.34-4.34,4.48-3.26,6s4.64,1.45,5.49-.15S2241.55,916.57,2238.39,916.33Z" transform="translate(-1990.35 218.88)"/><path class="a" d="M2132.37,984.4c-4.48-.36-4.34,4.8-3.26,6.43s4.64,1.55,5.49-.16S2135.52,984.65,2132.37,984.4Z" transform="translate(-1990.35 218.88)"/><path class="a" d="M2083.2,941.16c-4.48-.34-4.34,4.48-3.26,6s4.64,1.45,5.49-.15S2086.35,941.4,2083.2,941.16Z" transform="translate(-1990.35 218.88)"/><path class="a" d="M2322,926.88c-4.48-.26-4.34,3.49-3.26,4.68s4.64,1.13,5.49-.11S2325.16,927.07,2322,926.88Z" transform="translate(-1990.35 218.88)"/><path class="a" d="M2172.91,1002.47c-5.91-.46-5.72,6-4.3,8.09s6.12,2,7.23-.2S2177.07,1002.79,2172.91,1002.47Z" transform="translate(-1990.35 218.88)"/><path class="a" d="M2192.51,946.69c-8.53-.57-8.25,7.5-6.21,10s8.82,2.43,10.44-.24S2198.5,947.08,2192.51,946.69Z" transform="translate(-1990.35 218.88)"/><path class="a" d="M2176.31,1093.49c-4.48-.36-4.34,4.8-3.26,6.43s4.64,1.55,5.49-.16S2179.46,1093.74,2176.31,1093.49Z" transform="translate(-1990.35 218.88)"/><path class="a" d="M2127.14,1050.25c-4.48-.34-4.34,4.48-3.26,6s4.64,1.45,5.49-.15S2130.29,1050.49,2127.14,1050.25Z" transform="translate(-1990.35 218.88)"/><path class="a" d="M2216.85,1111.56c-5.91-.46-5.72,6-4.3,8.09s6.12,2,7.23-.2S2221,1111.88,2216.85,1111.56Z" transform="translate(-1990.35 218.88)"/><path class="a" d="M2236.45,1055.78c-8.53-.57-8.25,7.5-6.21,10s8.82,2.43,10.44-.24S2242.44,1056.18,2236.45,1055.78Z" transform="translate(-1990.35 218.88)"/><path class="a" d="M2254.41,965.29c-4.48-.26-4.34,3.49-3.26,4.68s4.64,1.13,5.49-.11S2257.56,965.48,2254.41,965.29Z" transform="translate(-1990.35 218.88)"/><path class="a" d="M2224.76,1178.45c-4.48-.34-4.34,4.48-3.26,6s4.64,1.45,5.49-.15S2227.91,1178.69,2224.76,1178.45Z" transform="translate(-1990.35 218.88)"/><path class="a" d="M2118.73,1246.52c-4.48-.36-4.34,4.8-3.26,6.43s4.64,1.55,5.49-.16S2121.88,1246.77,2118.73,1246.52Z" transform="translate(-1990.35 218.88)"/><path class="a" d="M2069.56,1203.28c-4.48-.34-4.34,4.48-3.26,6s4.64,1.45,5.49-.15S2072.72,1203.52,2069.56,1203.28Z" transform="translate(-1990.35 218.88)"/><path class="a" d="M2308.37,1189c-4.48-.26-4.34,3.49-3.26,4.68s4.64,1.13,5.49-.11S2311.53,1189.19,2308.37,1189Z" transform="translate(-1990.35 218.88)"/><path class="a" d="M2159.28,1264.59c-5.91-.46-5.72,6-4.3,8.09s6.12,2,7.23-.2S2163.43,1264.91,2159.28,1264.59Z" transform="translate(-1990.35 218.88)"/><path class="a" d="M2178.87,1208.81c-8.53-.57-8.25,7.5-6.21,10s8.82,2.43,10.44-.24S2184.87,1209.21,2178.87,1208.81Z" transform="translate(-1990.35 218.88)"/><path class="a" d="M2240.78,1227.41c-4.48-.26-4.34,3.49-3.26,4.68s4.64,1.13,5.49-.11S2243.93,1227.6,2240.78,1227.41Z" transform="translate(-1990.35 218.88)"/><path class="a" d="M3026.3-193.35c-4.48-.26-4.34,3.49-3.26,4.68s4.64,1.13,5.49-.11S3029.45-193.16,3026.3-193.35Z" transform="translate(-1990.35 218.88)"/><path class="a" d="M2952.36-155.9c-2.13,0-1.76,2.71-2.93,3.44s-2.12,1.32-1.9,2.42,4.32,1.32,4.25,3.3,1.9,1.61,1.9-.81,2.34-2.49,3.81-2.64.22-2.34-2-2.42S2953.53-155.9,2952.36-155.9Z" transform="translate(-1990.35 218.88)"/><path class="a" d="M2622.43-183c-2.13,0-1.76,2.71-2.93,3.44s-2.12,1.32-1.9,2.42,4.32,1.32,4.25,3.3,1.9,1.61,1.9-.81,2.34-2.49,3.81-2.64.22-2.34-2-2.42S2623.6-183,2622.43-183Z" transform="translate(-1990.35 218.88)"/><path class="a" d="M2345,300.35c-2.13,0-1.76,2.71-2.93,3.44s-2.12,1.32-1.9,2.42,4.32,1.32,4.25,3.3,1.9,1.61,1.9-.81,2.34-2.49,3.81-2.64.22-2.34-2-2.42S2346.14,300.35,2345,300.35Z" transform="translate(-1990.35 218.88)"/><path class="a" d="M2031.63,1068.15c-2.13,0-1.76,2.71-2.93,3.44s-2.12,1.32-1.9,2.42,4.32,1.32,4.25,3.3,1.9,1.61,1.9-.81,2.34-2.49,3.81-2.64.22-2.34-2-2.42S2032.8,1068.15,2031.63,1068.15Z" transform="translate(-1990.35 218.88)"/><path class="a" d="M3066.16-44c-2.13,0-1.76,2.71-2.93,3.44s-2.12,1.32-1.9,2.42,4.32,1.32,4.25,3.3,1.9,1.61,1.9-.81,2.34-2.49,3.81-2.64.22-2.34-2-2.42S3067.33-44,3066.16-44Z" transform="translate(-1990.35 218.88)"/><path class="c" d="M2140,554.29h109.91v43.9h-168v-43.9L2191,416.69H2087.1v-43.9h162l.15,43.9Z" transform="translate(-1990.35 218.88)"/><path class="d" d="M2928.46,1249.67v-93.41H2828.11v93.41H2782V1024.28h46.1v88.09h100.35v-88.09h46.1v225.39Z" transform="translate(-1990.35 218.88)"/><path class="e" d="M2968.9,200.78h-56.68l-79.93-103v103h-46.1V-24.65h46.1V73l75.62-97.67h55.89L2879.6,84.51Z" transform="translate(-1990.35 218.88)"/><path class="e" d="M2988.9,174.78h-56.68l-79.93-103v103h-46.1V-50.65h46.1V47l75.62-97.67h55.89L2899.6,58.51Z" transform="translate(-1990.35 218.88)"/><path class="e" d="M3008.9,148.78h-56.68l-79.93-103v103h-46.1V-76.65h46.1V21l75.62-97.67h55.89L2919.6,32.51Z" transform="translate(-1990.35 218.88)"/><path class="f" d="M2983.56,711l36,82.49H2969.9L2933.7,711h-45.58v82.49H2842V568.14h168.49V711Zm-95.45-39.1H2968V612.06h-79.9Z" transform="translate(-1990.35 218.88)"/><path class="f" d="M2988.46,1309.67v-93.41H2888.11v93.41H2842V1084.28h46.1v88.09h100.35v-88.09h46.1v225.39Z" transform="translate(-1990.35 218.88)"/><path class="e" d="M2488.81,102.75V28.53H2397.1v74.22H2351V-122.65h183.91V102.75ZM2397.1-15.37h91.71V-78.73H2397.1Z" transform="translate(-1990.35 218.88)"/><path class="e" d="M3028.9,122.78h-56.68l-79.93-103v103h-46.1V-102.65h46.1V-5l75.62-97.67h55.89L2939.6,6.51Z" transform="translate(-1990.35 218.88)"/><line class="g" x1="309.3" y1="116.23" x2="360.65" y2="96.23"/><line class="g" x1="309.3" y1="341.63" x2="360.65" y2="321.63"/><path class="f" d="M2160,554.29h109.91v43.9h-168v-43.9L2211,416.69H2107.1v-43.9h162l.15,43.9Z" transform="translate(-1990.35 218.88)"/><polygon class="h" points="791.67 1243.15 851.67 1303.15 851.67 1528.55 791.67 1468.55 791.67 1243.15"/><polygon class="d" points="897.76 1303.15 837.76 1243.15 791.67 1243.15 851.67 1303.15 897.76 1303.15"/><polygon class="d" points="998.12 1303.15 938.12 1243.15 984.21 1243.15 1044.21 1303.15 998.12 1303.15"/><polygon class="h" points="998.12 1391.24 938.12 1331.24 938.12 1243.15 998.12 1303.15 998.12 1391.24"/><polygon class="h" points="897.76 1391.24 897.76 1330.63 938.12 1331.24 998.12 1391.24 897.76 1391.24"/><polygon class="h" points="938.12 1468.55 998.12 1528.55 998.12 1435.14 938.12 1435.14 938.12 1468.55"/><path class="h" d="M2394.89,883.28c-13.29-15.7-50.9-47.27-52.72-125.44s-18-142.68-18-168.13,16.36-87.26,1.82-110.89-60-78.17-78.17-92.71S2202.13,306,2191,302.44c-34.15-10.78-111.08-18.09-97.72-61.65s106.75-14.69,133.67-8,49.07,57.23,72.71,84.5,79.09,77.87,95.45,72.41-10.91-94.53-20-118.16-36.36-49.08-43.63-85.44,29.09-107.26,30.9-123.62S2344.15,8,2326-10.2s5.45-40,34.54-32.72,50.9,29.09,69.08,70.9-10.91,141.8-10.91,141.8,30.9,52.72,43.63,81.81,30.9,60,38.18,92.71,14.54,40,23.63,41.81,20-90.9,18.18-123.62-3.71-103.62,49-127.25c0,0-11.07-38-13.47-61.81-3.5-34.62,1.22-57.89,20.82-83.62,18.33-24.07,67.26-36.36,98.17-25.45s58.17,25.45,63.63,50.9S2740.46,48,2718.65,48s-50.9-18.18-63.63,3.64,7.27,78.17,7.27,78.17,51,8.73,67.29,62.76c17.9,59.3-72.45,106.07-110.92,28.13,0,0-.73,38.92,2.9,60.74s3.38,83.26,3.38,101.44,6.44,37.79,17.35,21.43,61.81-72.72,69.08-92.71,14.54-43.63,29.09-49.08,69.08-41.81,70.9-72.72-14.54-70.9,3.64-107.26,32.72-30.9,47.27-18.18,7.27,49.08,12.73,69.08,20,72.72,10.91,105.44-50.9,67.26-63.63,74.53-25.45,32.72-27.27,52.72-45.45,80-50.9,123.62-7.21,93.22-6.91,104.71,7.89,74.88,33.34,44,45.43-97.52,72.58-125.22c37.57-38.34,109.14-31.78,135.79-21,39.93,16.11,52.74,45.85,18.2,60.39s-91.21,13.53-105.75,53.52-3.64,94.53-25.45,138.16-89.33,89.62-111.14,131.44-31.5,155.8-33.31,190.34c0,0-193.68,38.18-319.11-3.64a214.73,214.73,0,0,1-6.37-59.61c.52-16,10.45-34.55,10.1-51C2405.4,920.4,2402.5,892.28,2394.89,883.28Z" transform="translate(-1990.35 218.88)"/><path class="i" d="M2402.33,1062.38c-12.45,12.54-22.34,19.5-24.3,55.72-2,37.28,6.24,53.89,15.58,61.35s80.27,24.27,190.4,20.53,137.78-14.93,147.11-26.13,18.67-28,14.93-63.47-24.61-44.37-24.61-44.37-34.77,7-139.3,12.64S2402.33,1062.38,2402.33,1062.38Z" transform="translate(-1990.35 218.88)"/><path class="j" d="M2591.32,135.24s28.71-14.9,71-5.45" transform="translate(-1990.35 218.88)"/><path class="j" d="M2618.66,220.68c-.66-36.18,43.29-33.52,52.61-14.88" transform="translate(-1990.35 218.88)"/><path class="j" d="M2349.36,22.49s19.91,4.27,28.42-18.82c0,0-10.14-51.64-40.92-46.18" transform="translate(-1990.35 218.88)"/><path class="j" d="M2126.39,284.72s19,3.17,24.06-2.86,12.81-23.78,5-33.78-25-17.53-35.66-18.44-18.54-2.86-26.56,11.16" transform="translate(-1990.35 218.88)"/><path class="j" d="M2862.26,64.34c-23.95-8.87-26.63,22.77-27.91,48.72s14,24.73,14,24.73,18.77-12.42,26.68-4.37" transform="translate(-1990.35 218.88)"/><path class="j" d="M2759.65,30.23c-7.38,9.26-38.81,8.72-61.52-7.43,0,0-7.79-30.34,14.92-42.38,0,0,19.22,0,38.42,16.27" transform="translate(-1990.35 218.88)"/><path class="j" d="M2954.89,564.68s-13-24.88-12-36.08,13.62-17.15,29-17.68,32.93-4.06,43.78,11.36" transform="translate(-1990.35 218.88)"/><path class="j" d="M2418.69,169.78s-8.82-15-28.86-11.46" transform="translate(-1990.35 218.88)"/><path class="j" d="M2485.11,137.79" transform="translate(-1990.35 218.88)"/><path class="j" d="M2729.58,294.73s5,16.3,43.88,25.07" transform="translate(-1990.35 218.88)"/><path class="j" d="M2750.89,272.17a50.16,50.16,0,0,1,38.86,18.8" transform="translate(-1990.35 218.88)"/><path class="j" d="M2777.22,301s-20.06-8.78-30.09-15" transform="translate(-1990.35 218.88)"/><path class="j" d="M2568.88,401.24c-3.76,13.79-12.54,32.6-16.3,40.12a59.31,59.31,0,0,0,0,53.91c12.54,25.07,12.54,82.74,12.54,82.74" transform="translate(-1990.35 218.88)"/><path class="j" d="M2443.18,385.27c-1,12.5,0,32.69-10.12,49.51s.95,36.54,19.78,53.08,19,46.74,19,46.74" transform="translate(-1990.35 218.88)"/><path class="j" d="M2702,455.2s-2.51,25.07-15,48.89" transform="translate(-1990.35 218.88)"/><path class="j" d="M2685.7,420.1c-10,16.3-32.6,22.57-37.61,42.62s2.51,17.55-3.76,62.68" transform="translate(-1990.35 218.88)"/><path class="j" d="M2362.33,62.52s6.19-14.75,37.53-16" transform="translate(-1990.35 218.88)"/><path class="j" d="M2368.52,41.5s11.28-6.27,21.31-6.27" transform="translate(-1990.35 218.88)"/><path class="j" d="M2369.78,67.82s15-1.25,22.57-8.78" transform="translate(-1990.35 218.88)"/><path class="j" d="M2330.68,177.07s3.71-8.17,24.05-12.72" transform="translate(-1990.35 218.88)"/><path class="j" d="M2342.2,155.58s11.28-10,25.07-1.25" transform="translate(-1990.35 218.88)"/><path class="j" d="M2340.94,183.16s15-2.51,26.33-12.54" transform="translate(-1990.35 218.88)"/><path class="j" d="M2243.8,379.07s16.3-6.27,22.57-18.8" transform="translate(-1990.35 218.88)"/><path class="j" d="M2259.12,383.77s20.06-6.27,26.33-23.82" transform="translate(-1990.35 218.88)"/><path class="j" d="M2248.18,365.53s5-15,18.8-18.8" transform="translate(-1990.35 218.88)"/><path class="j" d="M2737.18,594.44c.64,27.37,0,60.69,4.93,80.15" transform="translate(-1990.35 218.88)"/><path class="j" d="M2902.7,586.44s2.95-15.72-16.7-29.47" transform="translate(-1990.35 218.88)"/><path class="j" d="M2890.91,585.46s-17.68-15.72-17.68-33.4" transform="translate(-1990.35 218.88)"/><path class="j" d="M2909.58,567.78a39.29,39.29,0,0,0-16.7-22.59" transform="translate(-1990.35 218.88)"/><path class="j" d="M2188.06,290.88s1.45-14.46,15.9-26.51" transform="translate(-1990.35 218.88)"/><path class="j" d="M2191,302.44s16.49-11.24,16.6-21" transform="translate(-1990.35 218.88)"/><path class="j" d="M2888,211.21c-3.93-7.86-13.75-17.68-34.38-18.66" transform="translate(-1990.35 218.88)"/><path class="j" d="M2841.8,199.42s20.63,14.73,33.4,15.72" transform="translate(-1990.35 218.88)"/><path class="j" d="M2851.62,176.83s8.84-1,16.7,2.95" transform="translate(-1990.35 218.88)"/><path class="j" d="M2548.35,192.33s19.16-6.61,43,5.12" transform="translate(-1990.35 218.88)"/><path class="j" d="M2558.59,204.55s21.14,7.6,37,4.29" transform="translate(-1990.35 218.88)"/><path class="j" d="M2338.87,447c10.81,6.88,15.72,6.88,22.59,23.57s26.52,8.84,43.22,24.56" transform="translate(-1990.35 218.88)"/><path class="j" d="M2642.29,404.29c-17.58,22-34.28,15.81-34.28,15.81" transform="translate(-1990.35 218.88)"/><path class="j" d="M2657.13,210.26s12.77,19.65,25.54,2" transform="translate(-1990.35 218.88)"/><path class="j" d="M2607.16-18.87s-5.87,20.21,16.79,31.33" transform="translate(-1990.35 218.88)"/><path class="j" d="M2621.3-13.82S2636-7,2639,14.61" transform="translate(-1990.35 218.88)"/><path class="j" d="M2600.48,5.54s-.11,12.26,18.06,19.49" transform="translate(-1990.35 218.88)"/><path class="j" d="M2564.8,176.83s22.52-4.31,38,9.56" transform="translate(-1990.35 218.88)"/><path class="j" d="M2420.46,841.84s3-31.43-7.1-68.94-24.33-75-27.37-97.33" transform="translate(-1990.35 218.88)"/><path class="j" d="M2400.12,372.46s4.56,25.09-17.71,44.81" transform="translate(-1990.35 218.88)"/><path class="j" d="M2773.52,793.81c-18.22,9.18-59.44,24-73.82,46s-3,49.54-3,49.54" transform="translate(-1990.35 218.88)"/><path class="j" d="M2799.9,738.71s-28.4-11.06-35.37-45.06" transform="translate(-1990.35 218.88)"/><path class="j" d="M2504.52,953.38s-10.22-11.79-18.87-12.58" transform="translate(-1990.35 218.88)"/><path class="j" d="M2471.64,959.17s-18.87-7.86-21.23-14.15" transform="translate(-1990.35 218.88)"/><path class="j" d="M2448.71,973.26s-15.73-4.72-20.44-13.37" transform="translate(-1990.35 218.88)"/><path class="j" d="M2495,995.84s-.79-11-9.44-15.73" transform="translate(-1990.35 218.88)"/><path class="j" d="M2467.71,995.05s-7.08,9.44,4.72,23.59" transform="translate(-1990.35 218.88)"/><path class="j" d="M2429,993.91s3.15,12.58,15.73,17.3" transform="translate(-1990.35 218.88)"/><path class="j" d="M2513.83,966.84a26.84,26.84,0,0,1,14.15,17.3" transform="translate(-1990.35 218.88)"/><path class="j" d="M2491.23,1013.27s7.86,9.44,20.44,10.22" transform="translate(-1990.35 218.88)"/><path class="j" d="M2433,923.93s-10.22-9.44-11-19.66" transform="translate(-1990.35 218.88)"/><path class="j" d="M2515.68,1037.51s11.79,5.5,27.52-1.57" transform="translate(-1990.35 218.88)"/><path class="j" d="M2536.05,1000.2s18.87.79,27.52,10.22" transform="translate(-1990.35 218.88)"/><path class="j" d="M2496,1052.88s10.22,8.65,26.73,7.86" transform="translate(-1990.35 218.88)"/><path class="j" d="M2449.27,1033.65s3.15,11.79,17.3,14.94" transform="translate(-1990.35 218.88)"/><path class="j" d="M2419.68,1034.79s4.72,16.51,18.08,21.23" transform="translate(-1990.35 218.88)"/><path class="j" d="M2548.63,1057.6s4.72,16.51,24.37,21.23" transform="translate(-1990.35 218.88)"/><path class="j" d="M2566.72,1046.59s14.94,9.44,27.52,1.57" transform="translate(-1990.35 218.88)"/><path class="j" d="M2545.49,957s7.08,9.44,25.95,7.08" transform="translate(-1990.35 218.88)"/><path class="j" d="M2614.68,947.52s10.22,3.93,13.37,18.87" transform="translate(-1990.35 218.88)"/><path class="j" d="M2610,993.12s9.44,12.58,22.8,10.22" transform="translate(-1990.35 218.88)"/><path class="j" d="M2662.64,1019.85s11.79,4.72,13.37,19.66" transform="translate(-1990.35 218.88)"/><path class="j" d="M2636.69,1034s-.79,13.37-11,22.8" transform="translate(-1990.35 218.88)"/><path class="j" d="M2507.74,918.42s-3.15-16.51,7.86-28.31" transform="translate(-1990.35 218.88)"/><path class="j" d="M2560.22,906.27s6.29-16.51-1.57-29.09" transform="translate(-1990.35 218.88)"/><path class="j" d="M2459,909.77s16.51-5.5,25.16,3.93" transform="translate(-1990.35 218.88)"/><path class="j" d="M2584.8,927.86a20.33,20.33,0,0,0,13.37-15.73" transform="translate(-1990.35 218.88)"/><path class="j" d="M2666.57,945.94s0-14.94,13.37-15.73" transform="translate(-1990.35 218.88)"/><path class="j" d="M2496.25,750.08c5.87-19.57-5.87-90-15.65-140.89" transform="translate(-1990.35 218.88)"/><path class="j" d="M2621.48,707c0,27.39-11.74,72.4-25.44,72.4" transform="translate(-1990.35 218.88)"/><path class="j" d="M2568,1102.52s4.89,26.43-1,77.34" transform="translate(-1990.35 218.88)"/><path class="j" d="M2599.28,1099.58s6.85,48.95,0,76.36" transform="translate(-1990.35 218.88)"/><path class="j" d="M2631.58,1098.6s5.87,49.93-1,79.3" transform="translate(-1990.35 218.88)"/><path class="j" d="M2663.89,1094.69s6.85,49.93,2,78.32" transform="translate(-1990.35 218.88)"/><path class="j" d="M2698.15,1091.75s6.85,47,1,74.4" transform="translate(-1990.35 218.88)"/><path class="j" d="M2715.77,1109.37s2.94,16.64,1,30.35" transform="translate(-1990.35 218.88)"/><path class="j" d="M2681.51,1112.31s2.94,20.56,1,33.28" transform="translate(-1990.35 218.88)"/><path class="j" d="M2648.23,1116.22s3.92,20.56,2,34.26" transform="translate(-1990.35 218.88)"/><path class="j" d="M2616.9,1118.18s2.94,22.52,1,34.26" transform="translate(-1990.35 218.88)"/><path class="j" d="M2582.63,1122.1s2.94,24.47,1,33.28" transform="translate(-1990.35 218.88)"/><path class="j" d="M2531.73,1101.54s-2.94,52.86,0,74.4" transform="translate(-1990.35 218.88)"/><path class="j" d="M2495.51,1100.56s-5.87,37.2-1,73.42" transform="translate(-1990.35 218.88)"/><path class="j" d="M2455.37,1096.64s-6.85,41.12-1,73.42" transform="translate(-1990.35 218.88)"/><path class="j" d="M2416.21,1091.75s-7.83,33.28-2.94,67.55" transform="translate(-1990.35 218.88)"/><path class="j" d="M2397.61,1105.45a85.85,85.85,0,0,0-2,30.35" transform="translate(-1990.35 218.88)"/><path class="j" d="M2430.9,1113.29a154.5,154.5,0,0,0-1,28.39" transform="translate(-1990.35 218.88)"/><path class="j" d="M2472,1117.2s-2.94,17.62-1,31.33" transform="translate(-1990.35 218.88)"/><path class="j" d="M2511.17,1123.08s-3.92,21.54-1,33.28" transform="translate(-1990.35 218.88)"/><path class="j" d="M2548.37,1124.06s1,15.66-1,28.39" transform="translate(-1990.35 218.88)"/><path class="j" d="M2367.65-59.55s35.22,7,47.9,26.77" transform="translate(-1990.35 218.88)"/><path class="j" d="M2652.61-56.92S2594.42-60,2571.68-4.46" transform="translate(-1990.35 218.88)"/><path class="j" d="M2610.32-67.49s-22.37,1.63-36.19,25.62" transform="translate(-1990.35 218.88)"/><path class="j" d="M2705.78,125s37.59,17.27,46,66.58" transform="translate(-1990.35 218.88)"/><path class="j" d="M2546.58,147.55s-21.13,21.13-21.13,62" transform="translate(-1990.35 218.88)"/><path class="j" d="M2906.75,214.06s8.18,31.54-16.35,60.73" transform="translate(-1990.35 218.88)"/><path class="j" d="M2704.37,275.76s-7,21.13-7,29.59" transform="translate(-1990.35 218.88)"/><path class="j" d="M2817.52,357.14c-5.64,8.45-8.45,19.72-7,28.18s-8.45,12.68-12.68,24" transform="translate(-1990.35 218.88)"/><path class="j" d="M2302.84,568.8a117.5,117.5,0,0,0,2.82,47.9" transform="translate(-1990.35 218.88)"/><path class="j" d="M2958.7,467.43s34.65-1.84,57.84,25.83" transform="translate(-1990.35 218.88)"/><path class="j" d="M2318.49,136.48c-3.19,13,4,14.86-2.19,25.25s-12.79,16.59,3.31,40.72" transform="translate(-1990.35 218.88)"/><path class="j" d="M2801.89,212.93c5-8.22,19.44-25.46,22.23-35.86" transform="translate(-1990.35 218.88)"/><path class="j" d="M2195.23,348.57c2.75-14.2-9.53-18.15-11-24.73s-5.46-1.26-19.37-9.3" transform="translate(-1990.35 218.88)"/><path class="j" d="M2112.92,200.39s41.71-5.85,60,1.46" transform="translate(-1990.35 218.88)"/><path class="e" d="M2253.55,122.75V29.34H2153.2v93.41h-46.1V-102.65h46.1v88.09h100.35v-88.09h46.1V122.75Z" transform="translate(-1990.35 218.88)"/><path class="e" d="M2747.13,259.33a70.59,70.59,0,0,1-6.67,3.16,23.5,23.5,0,0,0-4.65,2.52c-2.69,1.64-5.33,5-7,7.14a71.72,71.72,0,0,0-5.61,9.41c-2,3.68-4.27,9.56-5.69,13.17s-5.13,14-6.14,16.84a45.13,45.13,0,0,1-2.88,6c-14.52,13.07-23.36,32.53-23.37,55.32,0,42.07,30.28,72.81,70.74,72.81,30.75,0,55.2-17.76,64.74-44.67H2869c-11.74,52.24-56.77,88.55-113,88.55-66.3,0-117.42-50.33-117.42-116.79,0-65.36,49.29-115,114.07-116.66Zm97.72,36.6A113.16,113.16,0,0,1,2869,344.68H2820.6a68.14,68.14,0,0,0-9.82-18.33l-.62-.81s1.38-2,2.35-3.19a47.41,47.41,0,0,1,4.79-5.24,33.11,33.11,0,0,1,3.67-2.93c.93-.59,2.17-1.31,2.59-1.57s2.62-1.7,3.23-2.13,3.69-2.63,5.33-3.91,5.47-4.36,6.45-5.19c.49-.41,2.16-1.83,3.6-3.09S2844.84,295.93,2844.84,295.93Z" transform="translate(-1990.35 218.88)"/><path class="f" d="M2352.24,598.19V372.79h46.1V554.27h90.51V372.79h46.1V598.19Z" transform="translate(-1990.35 218.88)"/><path class="f" d="M2165.1,883.54V658.14h46.1V883.54Z" transform="translate(-1990.35 218.88)"/><path class="f" d="M2444.46,654.13c56.25,0,101.28,36.3,113,88.55H2509.1c-9.54-26.91-34-44.67-64.74-44.67-40.47,0-70.72,30.75-70.74,72.92s30.28,72.81,70.74,72.81c30.75,0,55.2-17.76,64.74-44.67h48.38c-11.74,52.24-56.77,88.55-113,88.55-66.3,0-117.42-50.33-117.42-116.79s51-116.71,117.42-116.71Z" transform="translate(-1990.35 218.88)"/></svg>